<svg xmlns="http://www.w3.org/2000/svg" xmlns:xlink="http://www.w3.org/1999/xlink" viewBox="0,0,256,256" width="35px" height="35px"><g fill="#ffa214" fill-rule="nonzero" stroke="none" stroke-width="1" stroke-linecap="butt" stroke-linejoin="miter" stroke-miterlimit="10" stroke-dasharray="" stroke-dashoffset="0" font-family="none" font-weight="none" font-size="none" text-anchor="none" style="mix-blend-mode: normal"><g transform="scale(2,2)"><path d="M97,21c-15.41141,0 -27.98081,12.55779 -28,27.96484l-17.46094,22.28516c-0.73785,0.94222 -0.84519,2.23282 -0.27314,3.28399c0.57205,1.05117 1.71408,1.66185 2.90595,1.55391l0.89453,-0.08203c8.23253,0.03687 14.93359,6.75321 14.93359,14.99414c-0.00092,0.12203 0.0056,0.244 0.01953,0.36523c-0.06396,0.21949 -0.10262,0.44556 -0.11523,0.67383c-0.41485,7.71617 -6.8668,13.96094 -14.9043,13.96094c-4.70714,0 -8.84209,-2.08233 -11.58594,-5.4082c-0.67377,-0.85268 -1.75596,-1.27436 -2.82902,-1.10233c-1.07305,0.17203 -1.96919,0.91087 -2.34265,1.93145c-0.37345,1.02057 -0.16583,2.16331 0.54276,2.98729c3.85616,4.67413 9.72199,7.5918 16.21484,7.5918c10.64406,0 19.36695,-7.98791 20.66992,-18.16406c6.537,-5.12002 14.60054,-11.47838 21.375,-16.83984c15.40216,-0.02501 27.95508,-12.58826 27.95508,-27.99609c0,-15.42319 -12.57681,-28 -28,-28zM97,27c12.17681,0 22,9.82319 22,22c0,12.17681 -9.82319,22 -22,22h-1c-0.67576,0.00036 -1.33161,0.22884 -1.86133,0.64844c-5.82741,4.61337 -12.58018,9.92675 -18.69531,14.72852c-1.78383,-7.81481 -7.95028,-13.9899 -15.75586,-15.79883l14.67383,-18.72852c0.41361,-0.52784 0.63846,-1.17902 0.63867,-1.84961v-1c0,-12.17681 9.82319,-22 22,-22zM97,32c-9.35331,0 -17,7.6467 -17,17c0,9.3533 7.64669,17 17,17c9.35331,0 17,-7.6467 17,-17c0,-9.3533 -7.64669,-17 -17,-17zM97,38c6.11067,0 11,4.88933 11,11c0,6.11067 -4.88933,11 -11,11c-6.11067,0 -11,-4.88933 -11,-11c0,-6.11067 4.88933,-11 11,-11zM11.21094,62.70898c-3.50654,-0.02955 -6.88727,1.99227 -8.36328,5.39844c-1.96057,4.52439 0.11859,9.87769 4.66016,11.8457l43.88477,19.29297c0.05084,0.02226 0.1023,0.0431 0.1543,0.0625c1.00522,0.37696 2.15313,0.69141 3.45313,0.69141c3.42193,0 6.79702,-2.0522 8.25586,-5.52344c1.9479,-4.51805 -0.12434,-9.85515 -4.6543,-11.82422l-43.90039,-19.20117c-0.0026,-0.00131 -0.00521,-0.00261 -0.00781,-0.00391c-1.13111,-0.49015 -2.31358,-0.72843 -3.48242,-0.73828zM11.15625,68.71875c0.39037,-0.00024 0.78149,0.07452 1.15039,0.23438l43.89063,19.19531c0.00325,0.00131 0.00651,0.00261 0.00977,0.00391c1.45844,0.63199 2.18044,2.47947 1.54102,3.95508c-0.00595,0.01298 -0.01181,0.026 -0.01758,0.03906c-0.54714,1.31307 -1.5609,1.85352 -2.73047,1.85352c-0.29516,0 -0.74356,-0.08762 -1.32422,-0.30273l-43.76758,-19.24414c-0.0052,-0.00197 -0.01041,-0.00392 -0.01562,-0.00586c-1.45844,-0.63195 -2.17849,-2.47947 -1.53906,-3.95508c0.31599,-0.72922 0.93498,-1.27398 1.66016,-1.55664c0.36259,-0.14133 0.75221,-0.21656 1.14258,-0.2168z"></path></g></g></svg>